<?xml version="1.0" encoding="utf-8"?>
<!-- Generator: Adobe Illustrator 20.1.0, SVG Export Plug-In . SVG Version: 6.00 Build 0)  -->
<svg version="1.1" id="dma-logo" xmlns="http://www.w3.org/2000/svg" xmlns:xlink="http://www.w3.org/1999/xlink" x="0px" y="0px"
	 viewBox="0 0 1746 993.5" style="enable-background:new 0 0 1746 993.5;" xml:space="preserve">
<style type="text/css">
    #dma-logo-url { 
        display: none;
    }
    @media (max-width: 767px) { 
        #dma-logo-name { 
            display: none;
        }
    }
</style>
<g id="dma-logo-letters">
	<path d="M127.6,649.1c0-144,0-287.8,0-432c-13.2-1.4-26.2-2.8-39.3-4.1c-4.3-0.4-8.6-0.7-12.9-1.3c-8.2-1-12.5-5.7-12.5-14
		c-0.1-8-0.1-16,0-24c0.1-8.1,5.2-13,13.2-13c65.5,0,131-0.4,196.5,0.2c48.9,0.5,96,9.7,139.3,33.8c53.7,30,87.2,76,104.1,134.6
		c11.6,40.5,14.3,81.9,12.4,123.7c-1.4,32.1-6,63.6-15.9,94.2c-24.5,75.3-75.8,122.7-151.3,144.6c-32.5,9.4-65.9,13.6-99.6,13.8
		c-60.3,0.4-120.7,0.2-181,0.3c-2,0-4,0.1-6-0.2c-7-0.8-11.5-5.6-11.7-12.7c-0.1-8.5-0.1-17,0-25.5c0.1-7.3,4.6-12,12-12.8
		c16.1-1.7,32.1-3.3,48.2-5C124.6,649.7,126,649.4,127.6,649.1z M208.2,216.4c0,144.6,0,289,0,433.8c17,0,33.6,0.1,50.3,0
		c28.1-0.3,55.9-3.1,82.9-11.2c25.7-7.7,48.7-19.8,65.7-41.4c18.4-23.5,27-50.9,32-79.8c4.7-27.4,5.1-55,4.2-82.7
		c-1.3-36.8-5.9-73-18.2-107.9c-9.6-27.3-23.6-51.8-45.2-71.4c-28-25.3-61.7-36.4-98.5-38.6c-23.3-1.4-46.6-0.8-69.9-1
		C210.4,216.2,209.4,216.3,208.2,216.4z"/>
	<path d="M1655,0c2.5,2.7,4.8,5.4,7.4,8c15.2,15.2,30.4,30.4,45.6,45.6c1.3,1.3,2.5,2.6,4.4,4.6c-2.2,0.2-3.5,0.4-4.9,0.4
		c-21.7,0-43.3-0.1-65,0.1c-3.6,0-5.3-0.7-5.8-4.7c-1.2-8.9-3.2-17.7-4.9-27c-2,0-3.9,0-5.9,0c-97.2,0-194.3,0-291.5-0.1
		c-5.2,0-9.5,1.5-13.8,4.5c-58.9,41.9-117.8,83.7-176.9,125.4c-13.5,9.5-27.3,18.4-41.2,27.4c-2.9,1.9-3.8,4-3.8,7.3
		c0.2,151.7,0.4,303.3,0.4,455c0,4.8,1.5,6.1,6.1,6.5c16.9,1.4,33.8,3.2,50.7,4.9c7.4,0.8,12,5.9,12.1,13.4c0.1,7.2,0.1,14.3,0,21.5
		c-0.1,7.3-4.6,12.2-11.9,13c-1.6,0.2-3.3,0.1-5,0.1c-61.8,0-123.7,0-185.5,0c-13,0-17.4-4.4-17.4-17.3c0-5.2-0.1-10.3,0-15.5
		c0.2-9.6,4.6-14.4,14.1-15.3c17.6-1.7,35.1-3.3,52.7-5c1.5-0.1,2.9-0.5,4.6-0.7c0-125.3,0-250.3,0-375.4c-0.2-0.1-0.4-0.1-0.7-0.2
		c-1.9,5.2-3.9,10.4-5.7,15.7c-48.5,136.3-97,272.7-145.4,409c-4,11.3-19.4,16.2-29.1,9.1c-2.5-1.8-4.3-5.1-5.4-8.1
		c-17.9-49.3-35.6-98.6-53.3-147.9c-32.1-89.2-64.2-178.4-96.3-267.6c-0.6-1.5-1.2-3.1-2.4-6c0,124.7,0,248,0,371.7
		c7,0.8,14.1,1.6,21.1,2.4c9.9,1.1,19.9,2.1,29.8,3.2c7.5,0.8,12.3,5.6,12.5,13c0.2,7.3,0.2,14.7,0,22c-0.2,7.2-5,12.1-12.2,12.8
		c-1.8,0.2-3.7,0.2-5.5,0.2c-49.8,0-99.7,0-149.5,0c-12.7,0-17.1-4.3-17.1-17.1c0-5.5-0.2-11,0.1-16.5c0.3-9.2,4.7-13.6,13.8-14.5
		c16.7-1.7,33.5-3.3,50.2-5c1.3-0.1,2.6-0.5,4.3-0.8c0-1.9,0-3.7,0-5.5c0-124.5,0-249,0-373.5c0-26.8-0.4-53.7-0.7-80.5
		c0-1.7-0.7-4.1-2-5c-18.3-13.3-36.9-26.2-55.3-39.4C518.2,110.4,465.5,72.6,413,34.7c-5.4-3.9-10.8-5.8-17.7-5.8
		c-96.2,0.3-192.3,0.2-288.5,0.2c-2.1,0-4.3,0-6.5,0c-1.8,9.6-3.4,18.8-5.3,27.8c-0.3,1.4-2.2,3.6-3.3,3.6
		c-23.6,0.2-47.3,0.2-72,0.2c1.5-1.8,2.2-2.9,3.2-3.8C40.2,39.5,57.5,22.2,74.9,5c1.6-1.6,4.6-2.8,6.9-2.8
		c112.5-0.1,225-0.1,337.5,0c2.8,0,5.9,1,8.4,2.4c94.7,51,189.1,102.4,284.1,152.8c11.3,6,17.3,13.2,21.3,24.6
		c17,49.5,34.4,98.9,51.9,148.2c25.8,72.7,51.9,145.4,77.8,218c0.5,1.5,1.1,2.9,2.1,5.5c2.2-6,4.1-10.9,5.8-15.8
		C912.2,422,953.6,306.1,995,190.2c2.3-6.6,4.8-13.1,7-19.7c1.6-4.7,4.5-7.6,9-9.9c32.2-17.1,64.3-34.4,96.3-51.7
		c65.3-35.2,130.7-70.5,196-105.8c1.6-0.9,3.1-1.9,4.6-2.9C1423.7,0,1539.3,0,1655,0z"/>
	<path d="M1559.8,652.7c-4.4-13.1-8.6-25.7-12.8-38.3c-11-33.1-22.1-66.2-32.9-99.4c-1.1-3.4-2.7-4.6-6.3-4.6
		c-43.3,0.1-86.7,0.1-130,0c-2.9,0-4.8,0.3-6,3.6c-16,46-32.2,92-48.3,138c-0.2,0.5-0.2,1-0.4,1.9c14.2,1.3,28.2,2.6,42.2,3.9
		c9.4,0.9,13.7,5.5,13.7,14.9c0,6.5,0.1,13,0,19.5c-0.1,8.4-4.9,13.5-13.3,13.7c-8.8,0.2-17.7,0.1-26.5,0.1c-39.5,0-79,0-118.5,0
		c-12.4,0-16.7-4.3-16.7-16.9c0-5.8-0.1-11.7,0-17.5c0.1-8.1,4.7-12.8,12.8-13.7c15.6-1.6,31.1-3.4,46.7-5c3.4-0.3,5.1-1.5,6.3-5
		c28.9-82.9,57.9-165.8,86.9-248.7c28.1-80.5,56.3-161.1,84.4-241.6c2.8-7.9,6.8-10.7,15.3-10.7c3.8,0,7.7,0,11.5,0
		c9.2,0,13,2.7,15.8,11.3c9.1,28.2,18.1,56.4,27.2,84.5c23.8,73.9,47.6,147.8,71.5,221.8c19.4,60.3,38.9,120.6,58.2,181
		c1.4,4.2,2.9,6.4,7.9,6.9c14.7,1.4,29.4,3.6,44.1,5.5c8,1,12.2,5.5,12.3,13.6c0.1,7,0.1,14,0,21c-0.1,7.9-4.8,12.7-12.6,13.4
		c-1.7,0.1-3.3,0.1-5,0.1c-56.2,0-112.3,0-168.5,0c-13,0-17.1-4.1-17.1-16.9c0-5.8-0.1-11.7,0-17.5c0.1-8,4.5-12.7,12.3-13.6
		C1529.2,656.3,1544.1,654.5,1559.8,652.7z M1497.2,457.9c-17.2-53-34.3-105.5-51.8-159.3c-18.7,53.9-36.9,106.4-55.2,159.3
		C1426.2,457.9,1461.4,457.9,1497.2,457.9z"/>
</g>
<g id="dma-logo-name">
	<path d="M0,889c582,0,1164,0,1746,0c0,2.3,0,4.7,0,7c-582,0-1164,0-1746,0C0,893.7,0,891.3,0,889z"/>
	<path d="M1746,782c-582,0-1164,0-1746,0c0-2.3,0-4.7,0-7c582,0,1164,0,1746,0C1746,777.3,1746,779.7,1746,782z"/>
	<path d="M835.8,817.7c-6.2,15-12.3,30-18.6,45c-0.7,1.7-2.4,2.9-3.7,4.4c-1.1-1.4-2.6-2.7-3.3-4.3c-6.5-14.5-12.9-29.1-19.4-43.7
		c-0.5,0.1-1.1,0.2-1.6,0.2c0,5.2,0,10.4,0,15.6c-0.1,6.2,0,12.3-0.4,18.5c-0.3,5.1,1.5,8.2,6.6,9.6c1.3,0.3,2.2,1.8,3.3,2.7
		c-0.3,0.3-0.5,0.6-0.8,1c-7.8,0-15.5,0-24.9,0c1.7-1.7,2.5-3.2,3.4-3.4c4.9-0.6,6.9-3.5,7.1-8.1c0.5-13.5,1-26.9,1.6-40.4
		c0.2-3.8-1.5-5.8-5.2-6.5c-1.6-0.3-2.9-1.6-4.4-2.4c0.2-0.5,0.5-1,0.7-1.5c6.8,0,13.5-0.2,20.2,0.2c1.3,0.1,2.9,2.4,3.7,4.1
		c5.9,12.4,11.6,25,17.9,38.6c2.6-5.5,4.9-9.9,6.9-14.5c3.5-7.9,6.9-15.9,10.1-23.9c1.3-3.3,3.1-5,7-4.7c5.4,0.4,10.9,0.1,16.9,0.1
		c1.1,2.2,0.4,3.7-2.8,4.1c-5.2,0.5-6.7,3.2-6.2,8.5c1,12.9,1.5,25.9,1.8,38.9c0.1,4.2,1.5,6.4,5.7,7c1.5,0.2,2.8,1.8,4.1,2.7
		c-0.3,0.3-0.5,0.6-0.8,0.9c-10.2,0-20.4,0-30.6,0c-0.2-0.6-0.5-1.2-0.7-1.7c1.4-0.8,2.7-2.1,4.1-2.3c3.8-0.5,4.9-2.5,4.9-6.1
		c-0.1-12.6-0.1-25.3-0.1-37.9C837.4,817.9,836.6,817.8,835.8,817.7z"/>
	<path d="M16.2,808.6c1.1-1.2,2.1-3.2,3.5-3.5c14.5-2.9,29.1-4,43.6-1c14.4,2.9,24.1,15.7,24.6,30.7c0.4,14.4-8,26.9-21.1,30.4
		c-4.1,1.1-8.5,1.4-12.8,1.5c-11,0.2-21.9,0.1-32.9-0.1c-1.5,0-2.9-1.1-4.4-1.7c1.3-1,2.5-2.6,3.9-2.8c4.7-0.7,6.3-3.2,6.3-7.9
		c-0.1-12.8,0.1-25.6,0.1-38.5c0-7,0-7-6.9-6.3c-0.8,0.1-1.6,0.2-2.5,0.3C17.1,809.4,16.6,809,16.2,808.6z M40.2,831
		c0,6.7-0.1,13.3,0,20c0.2,6.2,2.6,9.3,7.8,10.8c10.2,2.8,20.7-2.4,23.1-12.6c1.6-6.8,2.2-14.2,1.4-21.1
		c-1.9-14.8-13.4-22.9-27.6-20.8c-3.3,0.5-4.9,1.6-4.7,5.4C40.4,818.7,40.2,824.8,40.2,831z"/>
	<path d="M1181.5,866.2c-9.3,0-17.1,0.1-24.8,0c-2.6,0-5.2-0.7-7.9-1c2.1-1.1,4.4-1.9,6.3-3.4c1-0.8,1.9-2.8,1.5-3.8
		c-1.2-3.8-2.7-7.5-4.5-11.1c-0.5-1.1-2-2-3.2-2.3c-1.6-0.4-3.3-0.1-5-0.1c-11.9,0-11.8,0-15.6,11.3c-1.3,3.8-0.8,6,3.7,6.6
		c1.4,0.2,2.6,1.7,3.9,2.6c-1.4,0.4-2.8,1.2-4.2,1.2c-5.3,0.2-10.6,0.2-16,0.1c-1.3,0-2.5-0.8-3.8-1.2c1-0.8,1.9-2.2,2.9-2.3
		c4.7-0.4,6.7-3.3,8.3-7.4c6-16.4,12.3-32.7,18.6-49c0.6-1.6,2.6-3.8,4-3.8s3.5,2,4.2,3.6c6.6,15.8,13,31.7,19.5,47.6
		c1.7,4.2,2.8,8.7,8.7,8.9C1179,862.6,1179.8,864.2,1181.5,866.2z M1149.5,839.2c-2.6-6.4-5-12.1-7.7-18.9c-2.6,7-4.7,12.6-7,18.9
		C1139.8,839.2,1144.2,839.2,1149.5,839.2z"/>
	<path d="M378.1,864.6c8.9-0.4,6.9-6.3,6.9-11.1c0.1-9.1,0-18.2,0-27.2c-2.2-0.7-4-1.3-6.9-2.3c2-0.8,2.8-1.4,3.6-1.4
		c7.5-0.3,15-0.8,22.4-0.5c3.3,0.1,6.9,1.5,9.6,3.4c6.3,4.4,5.8,13-0.7,17.1c-1.1,0.7-2.3,1.2-3.9,2.1c5.9,6.9,7.5,16.7,16.4,21.8
		c-4.7,0-9.3,0.1-14-0.1c-0.8,0-1.6-1.5-2.1-2.5c-2.5-4.7-5-9.4-7.2-14.2c-1.6-3.5-3.9-4.7-8.1-3.3c0,4.5-0.2,9.1,0.1,13.7
		c0.1,1,1.6,2.1,2.7,2.7c1.2,0.7,2.7,1,4.1,1.5c-0.1,0.5-0.2,0.9-0.3,1.4c-7.2,0-14.4,0-21.6,0C378.9,865.4,378.5,865,378.1,864.6z
		 M394.6,842.5c4.5-0.1,9.4,0.6,11.3-3.8c1.2-2.9,0.8-7.3-0.7-10.1c-1.9-3.7-6.3-3.5-10.6-2.6C394.6,831.3,394.6,836.6,394.6,842.5z
		"/>
	<path d="M959.7,865.2c0.9-0.6,1.8-1.5,2.8-1.7c3.9-0.5,4.6-2.9,4.6-6.4c-0.2-9.9-0.1-19.9-0.1-30.1c-2.5-0.1-4.6-0.3-7.9-0.4
		c1.4-1.5,2.2-2.9,3.1-3.1c10.9-1.9,21.8-3.3,32.6,0.1c8.3,2.6,13.1,8.9,14.3,17.6c1.3,8.9-1,16.6-8.8,21.8c-2.3,1.5-5.1,3-7.7,3.1
		c-10.7,0.3-21.5,0.1-32.3,0.1C960.2,865.9,960,865.5,959.7,865.2z M976.4,842C976.4,842,976.5,842,976.4,842c0.1,4.7,0,9.3,0.1,14
		c0.1,4.5,2.7,6.9,7.1,7.5c6.2,0.8,12.6-2.2,13.7-8.1c1.2-6.3,1.5-13.2,0.3-19.5c-1.5-7.7-9.5-11.8-17.4-10.8
		c-2.8,0.4-4,1.5-3.9,4.5C976.6,833.7,976.4,837.9,976.4,842z"/>
	<path d="M314.8,821.8c14.3,0.1,24.4,9.6,24.2,22.9c-0.2,13.5-10.4,22.8-25,22.7c-14.7,0-24.2-9.3-24-23.3
		C290.2,830.9,300.4,821.7,314.8,821.8z M328.6,845.5c-0.8-4.3-1.2-7.9-2.3-11.4c-2-6.2-7-9.4-13.3-9.1c-5.3,0.2-9.4,3.7-11,9.9
		c-1.9,7.4-1.6,14.8,1.5,21.9c1.9,4.5,5.3,7.2,10.3,7.3c5.2,0.2,9.7-1.7,11.7-6.7C327.1,853.5,327.7,849.2,328.6,845.5z"/>
	<path d="M668.6,854.9c-0.6-9.4-0.9-17.7-1.7-25.9c-0.1-1-1.9-1.9-3-2.7s-2.2-1.4-3.4-2.1c0.2-0.4,0.3-0.8,0.5-1.3
		c5.2,0,10.4,0,16.2,0c-0.6,1.2-1,2.5-1.5,2.6c-5.1,0.7-5,4.2-4.9,8.1c0.1,11.1,0.1,22.3,0.1,34.6c-1.8-1-4-1.6-5.5-3
		c-9.8-9.5-19.5-19.1-29.3-28.6c-1-1-2.2-1.8-3-2.5c0,9.2-0.1,18.2,0.1,27.3c0,0.9,1.6,2.1,2.8,2.7c1.2,0.6,2.7,0.7,4.1,1.1
		c0,0.4,0,0.8-0.1,1.3c-5.9,0-11.8,0-17.8,0c-0.2-0.4-0.3-0.8-0.5-1.2c2.1-0.5,4.2-1,6.9-1.7c0-10.8,0.2-21.7-0.2-32.6
		c-0.1-1.6-2.7-3.3-4.4-4.7c-1-0.8-2.4-1-4.4-1.7c6.5-3.3,15.8-2.2,20,1.9c8.2,8.1,16.3,16.2,24.4,24.4
		C665.3,851.9,666.5,852.9,668.6,854.9z"/>
	<path d="M1499.6,853.5c-0.5-7.4-1.1-14.9-1.3-22.3c-0.1-3.1-1.1-4.6-4.1-5.1c-0.9-0.2-1.7-1.2-2.6-1.8c0.2-0.4,0.3-0.8,0.5-1.2
		c5.2,0,10.4,0,16.4,0c-0.9,1.2-1.3,2.6-2,2.7c-4.6,0.6-4.8,3.7-4.6,7.3c0.4,9.6,0.7,19.3,1,28.9c0.1,1.8,0,3.6,0,6.9
		c-2.8-1.5-4.9-2.1-6.3-3.5c-10-9.6-19.8-19.3-29.6-29c-0.9-0.9-2-1.6-2.7-2.3c0,9.2-0.1,18.4,0.1,27.6c0,0.8,1.5,1.9,2.6,2.3
		c1.3,0.6,2.9,0.8,4.4,1.1c-0.1,0.5-0.1,0.9-0.2,1.4c-5.9,0-11.8,0-17.7,0c-0.2-0.4-0.3-0.7-0.5-1.1c2.2-0.7,4.4-1.3,7-2.1
		c0-10.5,0.2-21.2-0.2-31.8c-0.1-1.9-3-3.8-4.8-5.5c-0.9-0.8-2.2-1.1-3.1-2.3c7.6-0.8,14.8-3,21.2,4.5c7.8,9.2,16.9,17.3,25.5,25.8
		C1498.8,853.9,1499.2,853.7,1499.6,853.5z"/>
	<path d="M501.8,835.3c-4.7-3.1-4.5-10.2-11.1-9.4c-4.5,0.5-9.2,0.1-14.2,0.1c0,5.6,0,10.9,0,16.7c6.5-0.5,14.3,3.1,17.7-6.8
		c0,5.5,0,11,0,16.6c-2.4-2.4-4.3-5.7-7-6.8c-3-1.2-6.8-0.3-11-0.3c0,5.3-0.2,10.3,0.2,15.1c0.1,1.1,2.4,2.8,3.7,2.8
		c8.2,0.5,17.1,2.2,21.1-8.3c0.2-0.5,1-0.8,1.5-1c0.4-0.1,0.9,0.1,1.4,0.2c0.1,0.4,0.4,0.7,0.3,0.9c-2.9,14.2,1,11.5-14.3,11.4
		c-7.8,0-15.6,0-23.4,0c-2.5,0-5,0-7.4,0c-0.1-0.6-0.2-1.3-0.2-1.9c2.5-0.7,5-1.5,7.7-2.2c0-11.9,0-23.8,0-35.9
		c-2.5-0.6-4.9-1.1-7.2-1.7c0-0.4,0.1-0.8,0.1-1.2c14,0,27.9,0,42.1,0C501.8,827.4,501.8,830.7,501.8,835.3z"/>
	<path d="M172.6,853.3c-2.7,16.4,0.3,13.2-14.3,13.3c-8,0-16,0.1-23.9,0.1c-2.4,0-4.8-0.2-7.1-0.3c0-0.6-0.1-1.2-0.1-1.8
		c2.4-0.6,4.9-1.3,7.6-2c0-11.9,0-23.8,0-36c-2.5-0.6-4.9-1.1-7.4-1.7c0-0.4,0-0.8,0-1.2c1-0.3,1.9-0.8,2.9-0.8
		c10.5,0,21,0.1,31.4,0.1c8.5,0,8.5,0,8.3,8.5c0,0.8-0.1,1.6-0.4,4c-1.7-2.1-3-3.1-3.6-4.4c-1.6-3.7-4.1-5.3-8.2-5.1
		c-3.8,0.2-7.6-0.1-11.5-0.1c-0.5,0-0.9,0.2-1.5,0.4c-0.2,5.3-0.5,10.5-0.7,15.7c8.7,2.3,12.5,0.9,17.9-7c0,6.5,0,12.1,0,17.6
		c-2.8-11-11-6.4-17.9-7.1c0,5.3-0.2,9.9,0.2,14.5c0.1,1.2,2,3.3,3.2,3.4c8.3,0.5,17.4,2.6,21.7-8.1
		C169.5,854.5,170.9,854.3,172.6,853.3z"/>
	<path d="M1731.3,834.9c-2.2-1.8-3.6-2.7-4.7-3.9c-4.1-4.9-9.2-7.5-15.4-5.8c-6.1,1.7-8.5,7.1-9,12.7c-0.5,5.5-0.7,11.5,0.8,16.7
		c2.9,10.3,13.9,12.7,21.7,5.4c2.1-1.9,4-3.9,6.6-6.5c1.2,9.8-0.9,12.6-8.9,13.4c-3.5,0.4-7,0.5-10.5,0.3
		c-13.7-1-21.9-9.9-21.5-23.2c0.4-12.9,9.5-22,22.7-22.5c2.7-0.1,5.3,0.1,8,0.2C1730.2,822.5,1731.2,823.7,1731.3,834.9z"/>
	<path d="M587.6,866c-7.1,0-14.2,0-21.3,0c-0.1-0.3-0.2-0.6-0.3-0.9c1.9-0.8,3.9-1.7,6-2.6c-0.3-1-0.5-1.8-0.8-2.5
		c-3.6-9.6-3.6-9.7-13.8-8.7c-5.8,0.5-4.2,6.3-6,9.6c-0.1,0.2,2.7,2.1,4.2,3.2c0.4,0.3,0.8,0.5,2.3,1.6c-6.7,0-12.1,0-17.6,0
		c0-0.2,0-0.8,0.1-0.8c5.5-0.8,7.1-4.8,8.7-9.4c3.6-10.2,7.5-20.3,11.4-30.3c0.5-1.3,2.2-3.3,3-3.1c1.4,0.3,3,1.7,3.6,3.1
		c4.2,9.8,8.1,19.7,12.1,29.5c1.8,4.3,2.5,9.5,9.1,10C588.1,865.1,587.9,865.6,587.6,866z M561.6,835.7c-0.4,0.1-0.8,0.1-1.2,0.2
		c-1.4,3.8-2.8,7.6-4.3,11.8c3.6,0,6.5,0,10.2,0C564.7,843.4,563.2,839.5,561.6,835.7z"/>
	<path d="M1387.7,865.9c-5.4,0-10.9,0-16.3,0c0-0.5,0-1.1,0.1-1.1c5.5-0.8,7.1-4.9,8.7-9.4c3.6-10.2,7.5-20.3,11.4-30.3
		c0.5-1.3,2.2-3.2,3-3.1c1.4,0.3,3,1.7,3.6,3.1c4.2,9.8,8.1,19.7,12.1,29.5c1.8,4.3,2.4,9.6,9.1,9.9c-0.2,0.4-0.5,0.8-0.7,1.2
		c-7.1,0-14.2,0-21.4,0c-0.1-0.2-0.2-0.5-0.3-0.7c1.9-0.8,3.9-1.7,6-2.6c-0.3-1-0.5-1.8-0.8-2.5c-3.6-9.6-3.6-9.7-13.8-8.7
		c-5.8,0.5-4.2,6.3-5.9,9.6c-0.1,0.2,2.7,2.1,4.2,3.2c0.4,0.3,0.8,0.5,1.2,0.8C1387.8,865.2,1387.7,865.6,1387.7,865.9z
		 M1392.7,835.8c-0.4,0-0.8-0.1-1.2-0.1c-1.4,3.9-2.8,7.7-4.3,11.9c3.7,0,6.5,0,10.1,0C1395.7,843.4,1394.2,839.6,1392.7,835.8z"/>
	<path d="M1547.4,822.2c14.6,1.4,27.7,1.7,41.4-0.2c0,3.2,0,7.5,0,11.9c-0.3,0.1-0.7,0.3-1,0.4c-1.7-2.4-2.9-5.7-5.2-6.9
		c-2.4-1.2-5.8-0.3-9.4-0.3c0,11.3-0.1,22.4,0.1,33.5c0,0.9,1.4,1.9,2.4,2.5c1.3,0.7,2.9,0.9,4.3,1.3c-0.1,0.5-0.2,0.9-0.2,1.4
		c-7.9,0-15.7,0-24.4,0c1.1-1,1.7-2,2.4-2.1c5.9-0.5,6.4-4.3,6.2-9.1c-0.3-7.6-0.3-15.3,0-23c0.1-3.8-1.2-4.8-4.9-4.8
		c-4.7,0-9,0.3-11.7,4.9c-0.4,0.7-1.5,0.9-3.3,0.8C1545.4,828.7,1546.6,824.8,1547.4,822.2z"/>
	<path d="M1257,820.2c0,5.1,0,9.4,0,13.6c-0.3,0.4-0.6,0.7-0.9,1.1c-3-6.2-6.9-10.5-14.9-6.8c0,3.9,0,8.6,0,13.4c0,3.7,0,7.3,0,11
		c0,8.8,0,8.8,8,13.3c-9.1,0-17,0-24.9,0c-0.4-0.4-0.7-0.9-1.1-1.3c0.7-0.1,1.3-0.4,2-0.4c6.9-0.6,7.1-5.2,6.9-10.6
		c-0.3-7.1-0.3-14.3,0-21.5c0.2-4.1-1.4-5-5.2-5c-4.8-0.1-8.9,0.7-11.6,5.1c-0.3,0.6-1.2,0.8-1.9,1.2c-0.4-0.2-0.9-0.4-1.3-0.6
		c1.2-4,2.4-7.9,3.7-12.1C1222.6,824.2,1251.4,824.2,1257,820.2z"/>
	<path d="M210.4,822.3c8.4,0,15.9,0,23.4,0c0.2,0.4,0.3,0.8,0.5,1.3c-1.3,0.7-2.8,1.1-4,2c-1.2,1-3,2.3-3,3.5
		c-0.2,11.1-0.1,22.3-0.1,34.6c5.1-0.4,10.3,0.3,14.7-1.3c4-1.5,7-5.4,10.6-8.4c0.3,0.9,0.6,1.4,0.6,1.8c0.6,11-0.2,11.5-11,10.9
		c-8.6-0.5-17.3-0.3-25.9-0.4c-1.9,0-3.8,0-5.7,0c-0.1-0.6-0.2-1.2-0.3-1.8c2.3-0.7,4.6-1.3,7.8-2.2c0-6.8,0-14,0-21.3
		c0-2.2-0.1-4.3,0-6.5c0.3-4.8,0.2-9.1-6-9.9C211.6,824.6,211.3,823.7,210.4,822.3z"/>
	<path d="M1312.2,863.9c5.4-0.4,10.6,0.1,14.8-1.5c3.9-1.5,7-5.4,10.6-8.3c0.3,1,0.5,1.4,0.5,1.9c0.4,10.9-0.3,11.4-11.1,10.8
		c-8.6-0.5-17.3-0.3-25.9-0.4c-1.9,0-3.7,0-5.6,0c-0.1-0.6-0.2-1.2-0.3-1.8c2.3-0.7,4.7-1.3,7.6-2.1c0-10.9,0.1-22.1-0.1-33.4
		c0-1.1-1.9-2.3-3.1-3.2s-2.6-1.4-3.9-2c0.1-0.4,0.3-0.8,0.4-1.2c7.6,0,15.1,0,22.7,0c0.2,0.4,0.3,0.7,0.5,1.1c-1,0.6-2,1.6-3.1,1.7
		c-3.3,0.5-4.1,2.3-4.1,5.5C1312.3,841.4,1312.2,852,1312.2,863.9z"/>
	<path d="M1649.2,823.3c-0.1,0.8-0.1,1.3-0.3,1.4c-7.1,1.3-5.7,6.8-5.7,11.6c0,8.6,0,17.3,0,25.8c2.3,1.1,4.4,2.1,6.5,3.1
		c-0.2,0.3-0.3,0.6-0.5,1c-7,0-14,0-21,0c-0.4-0.5-0.9-0.9-1.3-1.4c9.4-1.2,7.1-7.6,7.1-12.9c0.1-6.8-0.1-13.7,0.1-20.5
		c0.1-3.5-0.3-5.9-4.6-5.7c-0.5,0-1.1-0.9-2.8-2.3C1635,823.3,1642,823.3,1649.2,823.3z"/>
	<path d="M921.1,823.4c-0.1,0.7-0.1,1.2-0.2,1.3c-7.3,1.5-5.7,7.2-5.7,12.1c0,8.6,0,17.3,0,25.4c2.5,1.2,4.5,2.2,6.5,3.1
		c-0.2,0.3-0.5,0.6-0.7,0.9c-7,0-13.9,0-20.9,0c-0.1-0.4-0.1-0.8-0.2-1.2c0.7-0.4,1.4-1.1,2.2-1.3c3.3-0.6,4-2.7,4-5.8
		c-0.2-8.8-0.2-17.6,0-26.5c0.1-3.4-0.2-6-4.5-5.8c-0.6,0-1.2-0.9-3.1-2.3C907,823.4,914,823.4,921.1,823.4z"/>
	<path d="M1075.6,842.1c0,3,0,5.7,0,8.8c-8.7,0-17.1,0-25.7,0c0-3,0-5.7,0-8.8C1058.5,842.1,1066.9,842.1,1075.6,842.1z"/>
</g>
<path d="M-26-86"/>
<g id="dma-logo-url">
	<path d="M141,960c3.6,0,7.3,0,10.4,0c0.2,2.6-0.2,5,0.6,7c2.4,6.5,5.2,12.8,8,19.6c5.1-7.4,2.4-20-5.8-26c4.9,0,9.2,0,12.1,0
		c0.3,3.3,0.7,6.4,1,9.6c0.5,0,0.9,0,1.4-0.1c1.3-3,5.7-5.6,0.1-9.7c3.8,0,6.9,0,10.3,0c-10,10.1-11,13.2-4.5,24.5
		c5.2-6.8,9.1-20.8,6.3-24.4c2.7,0,5,0,6.5,0c-4.4,11.3-8.9,22.9-13.4,34.6c-1,0-2,0-3,0c-1.6-4.2-3.2-8.5-5.1-13.8
		c-2.7,5.4-4.8,9.6-6.9,13.8c-1,0-2,0-3,0c-4.3-10.4-8.5-20.8-12.8-31.2c-0.3-0.8-1.4-1.2-2.2-1.8C141,961.3,141,960.7,141,960z"/>
	<path d="M220,995c-4.7-11.5-9.3-22.9-14-34.5c2.8,0,6.4,0,8.7,0c0.6,9.7,6.3,17.3,9.2,26.4c5.1-8.1,2.4-20.1-5.6-26.4
		c4.9,0,9.1,0,13.8,0c-4.8,3.6-0.7,6.5,0.2,10.5c1.7-3.9,6.1-6.6,0.5-10.6c3.8,0,6.9,0,10.4,0c-9.7,9.6-11.2,13.3-4.1,25.2
		c2.8-7.3,5.5-14,7.8-20.8c0.4-1.1-1-2.7-1.7-4.4c2.3,0,4.6,0,6.2,0c-4.4,11.3-8.9,22.9-13.4,34.6c-1,0-2,0-3,0
		c-1.6-4.2-3.2-8.5-5.1-13.8c-2.7,5.4-4.8,9.6-6.9,13.8C222,995,221,995,220,995z"/>
	<path d="M285,995c-4.7-11.5-9.3-22.9-14-34.5c2.8,0,6.4,0,8.7,0c0.5,9.8,6.6,17.2,9.1,26.6c5.2-8.3,2.5-20.3-5.5-26.6
		c4.8,0,9.1,0,13.8,0c-4.8,3.6-0.7,6.5,0,9.9c4.4-5.9,4.4-6.4,1.2-10c3.3,0,6.4,0,9.9,0c-9.7,9.6-11.2,13.3-4.1,25.2
		c2.8-7.3,5.5-14,7.8-20.8c0.4-1.1-1-2.7-1.7-4.4c2.3,0,4.7,0,6.2,0c-4.4,11.3-8.9,22.9-13.4,34.6c-1,0-2,0-3,0
		c-1.6-4.2-3.2-8.5-5.1-13.8c-2.7,5.4-4.8,9.6-6.9,13.8C287,995,286,995,285,995z"/>
	<path d="M560,995c-3.6-2.5-8-4.4-10.6-7.7c-5.7-7.3-3.5-19.3,3.8-24.6c8-5.9,20.3-4.6,26.2,2.7c6,7.5,5.2,19-2.2,25.2
		c-2.3,2-5.5,3-8.2,4.4C566,995,563,995,560,995z M575.6,977.8c-0.7-3.7-1-7.1-2-10.2c-1.5-4.3-4.8-6.8-9.6-6.6
		c-4.7,0.1-7.2,3.2-8.3,7.3c-1.7,6.4-1.5,12.9,1.1,19.1c1.5,3.5,4.4,6.2,8.1,5.3c3-0.7,6.5-2.8,8.2-5.3
		C574.9,984.8,574.9,980.9,575.6,977.8z"/>
	<path d="M1516,995c-3.6-2.5-8-4.4-10.6-7.7c-5.7-7.3-3.5-19.3,3.8-24.6c8-5.9,20.3-4.6,26.2,2.7c6,7.5,5.2,19-2.2,25.2
		c-2.3,2-5.5,3-8.2,4.4C1522,995,1519,995,1516,995z M1531.7,977.8c-0.9-3.9-1.3-7.6-2.6-10.9c-1.6-4.1-5.1-6.1-9.5-5.9
		c-4.2,0.3-6.7,2.9-7.8,6.7c-2,6.8-2.2,13.7,1.2,19.9c1.3,2.4,5,4.9,7.6,5c2.7,0.1,6.4-2.2,8-4.6
		C1530.7,985.3,1530.8,981.3,1531.7,977.8z"/>
	<path d="M800,995c-8.8-8.5-17.7-17-26.2-25.1c0,6.5,0,13.7,0,20.8c2.1,0.8,3.8,1.4,5.4,2c0,0.3-0.1,0.6-0.1,0.9
		c-4.4,0-8.8,0-13.2,0c7.3-1.4,4.8-7.1,5-11.5c0.2-3,0.1-6,0.1-9c-0.2-8.3-0.2-8.3-6.4-12.4c5.4-0.3,10.7-2.1,15.5,3.2
		c6.3,7,13.4,13.1,20.5,20c-0.3-6.2-0.3-12.3-1.1-18.3c-0.2-1.7-2.8-3-4.7-4.9c4.2,0,8.2,0,12.1,0c-6.1,2.7-4.4,7.9-4.3,12.5
		c0.2,7.3,0.3,14.6,0.4,22C802,995,801,995,800,995z"/>
	<path d="M1231,995c-8.8-8.5-17.7-17-26.2-25.1c0,6.5,0,13.7,0,20.8c2.1,0.8,3.7,1.4,5.3,2c0,0.3-0.1,0.6-0.1,0.9
		c-4.4,0-8.8,0-13.2,0c7.3-1.4,4.8-7.1,5-11.5c0.2-3,0.1-6,0.1-9c-0.2-8.3-0.2-8.3-6.4-12.4c5.4-0.3,10.7-2.1,15.5,3.2
		c6.3,7,13.4,13.1,20.5,20c-0.3-6.2-0.3-12.3-1.1-18.3c-0.2-1.7-2.8-3-4.7-4.9c4.2,0,8.2,0,12.1,0c-6.1,2.7-4.4,7.9-4.3,12.5
		c0.2,7.3,0.3,14.6,0.4,22C1233,995,1232,995,1231,995z"/>
	<path d="M1366,995c-11.4-3.6-16.1-10.5-14.4-21c1.5-8.7,7.9-14.6,16.7-15c2.3-0.1,4.7-0.1,7,0.2c6.1,0.7,7.6,2.9,6.3,10.7
		c-1.5-1.8-2.4-3.5-3.7-4.2c-3.2-1.8-6.6-4.2-10-4.3c-4.2-0.1-6.8,3.9-7.2,7.8c-0.6,5.5-1.1,11.4,0.2,16.7
		c2.1,8.1,10.4,9.6,16.4,3.6c1.5-1.5,3-3.2,5-5.2c0.7,7.9,0.1,8.7-6.4,10.8C1372.7,995,1369.3,995,1366,995z"/>
	<path d="M1464,995c-11.4-3.6-16.1-10.5-14.4-21c1.5-8.7,7.9-14.6,16.7-15c2.3-0.1,4.7-0.1,7,0.2c6.1,0.7,7.6,2.9,6.3,10.7
		c-1.5-1.8-2.4-3.5-3.7-4.2c-3.2-1.8-6.6-4.2-10-4.3c-4.2-0.1-6.8,3.9-7.2,7.8c-0.6,5.5-1.1,11.4,0.2,16.7
		c2.1,8.1,10.4,9.6,16.4,3.6c1.5-1.5,3-3.2,5-5.2c0.7,7.9,0.1,8.7-6.4,10.8C1470.7,995,1467.3,995,1464,995z"/>
	<path d="M1292,958c0,3.6,0,7.1,0,10.7c-0.5,0.1-1,0.3-1.6,0.4c-1.1-2.2-1.8-5-3.5-6.3c-1.8-1.2-4.7-0.8-7.7-1.1
		c0,9.5-0.2,18.4,0.2,27.3c0.1,1.5,2.8,2.8,4.7,4.5c-6,0-11.9,0-17.7,0c7.7-1.8,5.6-7.8,5.7-12.8c0-6.1,0-12.2,0-18.2
		c-6.7-1.9-11.3-0.3-13.4,6.8c-0.6-0.4-1.2-0.8-1.8-1.2c1.1-3.4,2.1-6.8,3.2-10.2c0.7,0,1.3,0,2,0c0.7,0.7,1.5,1.9,2.2,1.9
		c7.6,0.1,15.2,0.2,22.7,0c1,0,2-1.2,3.1-1.9C1290.7,958,1291.3,958,1292,958z"/>
	<path d="M1073,958c0,3.6,0,7.1,0,10.7c-0.5,0.1-1,0.3-1.6,0.4c-1.1-2.2-1.8-5-3.5-6.3c-1.8-1.2-4.7-0.8-7.7-1.1
		c0,9.5-0.2,18.4,0.2,27.3c0.1,1.5,2.8,2.8,4.7,4.5c-6,0-11.9,0-17.7,0c7.7-1.8,5.6-7.8,5.7-12.8c0-6.1,0-12.2,0-18.2
		c-6.7-1.9-11.3-0.3-13.4,6.8c-0.6-0.4-1.2-0.8-1.8-1.2c1.1-3.4,2.1-6.8,3.2-10.2c0.7,0,1.3,0,2,0c0.7,0.7,1.5,1.9,2.2,1.9
		c7.6,0.1,15.2,0.2,22.7,0c1,0,2-1.2,3.1-1.9C1071.7,958,1072.3,958,1073,958z"/>
	<path d="M343,995c-0.7-0.7-2.1-1.3-2.1-2c0-2.6-0.3-5.5,0.9-7.5c0.6-1,5.5-1,6.2,0c1.3,1.9,1,4.9,1,7.4c0,0.7-1.3,1.4-2,2.1
		C345.7,995,344.3,995,343,995z"/>
	<path d="M1410,995c-0.7-0.7-2.1-1.3-2.1-2c0-2.6-0.3-5.5,0.9-7.5c0.6-1,5.5-1,6.2,0c1.3,1.9,1,4.9,1,7.4c0,0.7-1.3,1.4-2,2.1
		C1412.7,995,1411.3,995,1410,995z"/>
	<path d="M1604.9,960.3c-6.6,2.6-4.6,7.8-4.4,12.3c0.1,2.8,0.3,5.7,0.4,8.5c0.2,4.6-1.4,10.1,5.1,12.5c-5.4,0-10.8,0-16.2,0
		c-0.1-0.3-0.2-0.5-0.3-0.8c1.4-0.8,2.9-1.6,4.1-2.3c0-7.2,0-14.3,0-21.4c-0.4-0.1-0.8-0.2-1.2-0.3c-3.6,8.5-7.2,16.9-11.2,26.4
		c-4.4-9.4-8.3-17.6-12.2-25.9c-0.4,0.1-0.8,0.2-1.2,0.3c0,6.1-0.4,12.2,0.2,18.2c0.2,2,2.9,3.7,4.7,5.8c-4.1,0-8.3,0-12.5,0
		c5.9-2.2,4.7-7.2,4.9-11.6c0.2-3.7,0.3-7.3,0.6-11c0.3-4.2,1-8.5-5.7-9.5c8.9-3.5,12.8-2,15.9,5.3c2.3,5.3,4.7,10.5,7.5,16.8
		c2.8-6.6,5.4-12,7.4-17.6c1.6-4.5,3.8-7,8.9-6C1601.4,960.3,1603.2,960.2,1604.9,960.3z"/>
	<path d="M828.2,960c3.4,0,6.8-0.3,10.2,0.2c1.2,0.2,2.4,2,3,3.3c3,6.3,5.7,12.7,9,20.1c2.8-6.5,5.4-11.8,7.3-17.4
		c1.6-4.8,4.1-7.2,9.3-6.2c1.5,0.3,3.1,0.2,5.4,0.7c-7.4,2.5-5.1,7.9-4.9,12.7c0.1,2.8,0.3,5.7,0.3,8.5c0.2,7.4,0.2,7.4,5.8,11.6
		c-6.1,0-11.5,0-16.9,0c-0.1-0.3-0.3-0.5-0.4-0.8c1.4-0.7,2.9-1.5,4.1-2.1c0-7.3,0-14.5,0-21.7c-0.3-0.1-0.7-0.1-1-0.2
		c-3.6,8.4-7.1,16.9-11.2,26.4c-4.4-9.3-8.3-17.6-12.1-25.8c-0.4,0.1-0.8,0.1-1.2,0.2c0,6.2-0.3,12.4,0.2,18.6
		c0.2,1.8,2.9,3.4,4.7,5.3c-4.1,0-8.2,0-12.4,0c6.3-2.3,4.6-7.7,4.9-12.4c0.2-3.5,0.4-7,0.6-10.5C833.1,964.1,833,964.1,828.2,960z"
		/>
	<path d="M639,993.8c-9.4,0.7-9.3,0.6-13.9-8.1c-1.7-3.1-1.8-8.4-8.1-7.5c0,2.1,0,4.2,0,6.3c0,2,0,4,0,6.1c1.7,0.7,3.3,1.4,4.8,2.1
		c0,0.3-0.1,0.5-0.1,0.8c-5.3,0-10.7,0-16,0c5.2-0.9,4.1-5,4.1-8.4c0.1-5.7,0-11.3,0.1-17c0.1-3.3,0.4-6.6-4.9-6.8
		c0.2-0.6,0.5-1.2,0.7-1.7c7.8,0.5,15.6,0.4,23.2,1.8c2.3,0.4,5.5,4.7,5.5,7.2c-0.1,3.2-3,6.3-5.3,10.5
		C631.8,983,635.4,988.4,639,993.8z M617.1,977.3c3.5-1.8,7.1-2.4,8.4-4.5c1.2-2,0.8-6.1-0.5-8.2c-1.2-1.9-4.7-2.2-7.9-3.5
		C617.1,966.8,617.1,971.1,617.1,977.3z"/>
	<path d="M380.2,992.6c5.5-0.7,5.7-4.3,5.6-8.3c-0.2-6.5-0.1-13-0.1-19.4c0-0.5-0.3-0.9-0.4-1.6c-1.6-0.2-3.2-0.4-5.3-0.7
		c0.6-0.8,0.8-1.6,1.3-1.7c8.6-2.3,17.4-3.2,26-0.3c7.7,2.6,12,11.4,10.5,20c-1.4,8-7.8,13.3-16.2,13.4c-6.9,0.1-13.8,0-20.8,0
		C380.7,993.5,380.4,993.1,380.2,992.6z M392.9,975.4c0,2.8,0.1,5.6,0,8.5c-0.1,3.3,0,6.5,3.8,7.7s7.3,0.4,10.1-2.5
		c5.5-5.6,4.3-21.4-2.2-25.8c-1.8-1.2-4.2-1.9-6.4-2.2c-3.5-0.6-5.7,0.7-5.3,4.9C393.2,969.1,392.9,972.2,392.9,975.4z"/>
	<path d="M930.7,992.7c6-0.7,6.2-4.3,6.2-8.4c-0.1-6.9,0-13.9,0-20.9c-2.1-0.3-3.7-0.5-5.8-0.8c0.6-0.8,0.9-1.6,1.3-1.7
		c8.6-2.3,17.4-3.2,26-0.3c7.7,2.6,12,11.4,10.5,20c-1.4,8-7.8,13.3-16.2,13.4c-6.7,0.1-13.3,0-20-0.1
		C932.4,993.9,932.2,993.6,930.7,992.7z M943.9,975.2c0,3-0.4,6,0.1,8.9c0.5,2.5,1.6,6.5,3.1,6.9c3,0.8,7.2,0.4,9.6-1.2
		c7.6-5.3,5.4-23.9-3.1-27.6c-1.9-0.8-4.3-1.3-6.2-1c-1.4,0.3-3.2,2.2-3.4,3.6C943.6,968.2,943.9,971.7,943.9,975.2z"/>
	<path d="M658.1,992.5c1.8-0.6,3.6-1.2,5.7-1.9c0-8.3,0.3-16.6-0.2-24.9c-0.1-1.8-3.1-3.4-5.4-5.7c3.4,0,6.7,0,10.1,0
		c5.2,0,10.3,0,15.5,0c7.1,0,7.9,1.2,5.3,10.3c-2.5-11.7-10.7-7.7-17.7-8.3c0,4.5,0,8.9,0,13.7c4.6-0.2,10.3,2.8,13.1-4.6
		c0,3.8,0,7.7,0,11.5c-2.5-7.1-8.2-4.2-13.5-4.7c0,3.8-0.3,7.3,0.2,10.6c0.2,1.3,2.3,3.2,3.6,3.3c6.8,0.7,13.6,0.7,15.9-8.7
		c0.6,0.4,1.2,0.8,1.7,1.2c-0.5,3-1,6-1.5,9.3c-10.9,0-21.8,0-32.6,0C658.2,993.3,658.2,992.9,658.1,992.5z"/>
	<path d="M439,992.6c1.7-0.6,3.5-1.2,5.7-2.1c0-8.2,0.3-16.7-0.2-25.1c-0.1-1.7-3-3.3-4.8-5.1c0.5-0.1,1.6-0.4,2.8-0.4
		c7.2,0,14.3,0,21.5,0c8,0,8.3,0.4,6.8,8.5c-2.4-2.2-4.5-5.3-7.3-6.3c-3.3-1.1-7.2-0.3-11.2-0.3c0,4.7,0,9.1,0,13.8
		c4.9,0.1,10.3,2.1,13.3-4.6c0,3.8,0,7.6,0,11.4c-2.7-6.8-8.3-4.4-13.6-4.5c0,3.8-0.2,7.3,0.1,10.7c0.1,1.1,1.4,2.7,2.4,3
		c7,2.1,12.7-0.4,16.7-6.8c0.2-0.4,0.7-0.5,2.2-1.6c-0.6,4.1-1,7.1-1.5,10.2c-11.1,0-21.9,0-32.7,0C439.2,993.3,439.1,993,439,992.6
		z"/>
	<path d="M1154.2,993.6c-3.4,0-7.4,0-10.2,0c1.8-2.9,4.1-5.7,5.4-9c3-7.2,5.6-14.6,8.4-21.9c0.5-1.4,1.8-2.5,2.7-3.7
		c0.8,1.1,1.9,2.2,2.5,3.4c3.1,7.4,5.9,14.9,9.1,22.2c1.4,3.2,3.6,6.1,5.4,8.9c-4.2,0-9.6,0-16.4,0c2.5-1.2,3.8-1.9,5.6-2.8
		c-2.2-3-0.3-8.2-6.2-8.8c-5-0.5-8.7,0.6-9,6.1C1151.4,989.8,1153.1,991.6,1154.2,993.6z M1162.5,979.9c-1.4-3.6-2.6-6.6-4.2-10.7
		c-1.5,4.1-2.6,7.3-3.8,10.7C1157.3,979.9,1159.4,979.9,1162.5,979.9z"/>
	<path d="M986.9,993.4c1.7-2.5,3.9-4.8,5.1-7.7c3.3-7.8,6-15.9,9.1-23.8c0.4-1.1,1.5-1.9,2.2-2.9c0.8,0.9,2,1.7,2.4,2.8
		c3.2,7.8,6.2,15.8,9.6,23.6c1.3,2.9,3.5,5.4,5.3,8.1c-4.4,0-9.8,0-16.2,0c2-1.1,3.3-1.7,5.1-2.7c-1.9-3-0.3-8.2-5.9-8.7
		c-6.7-0.6-8.4,0.4-9.2,6.4c-0.2,1.5,1.7,3.2,2.7,5C993.9,993.4,989.9,993.4,986.9,993.4z M1001.4,969.1c-1.6,4.4-2.7,7.4-3.9,10.7
		c2.9,0,5.1,0,7.9,0C1004.2,976.4,1003,973.3,1001.4,969.1z"/>
	<path d="M746.4,993.7c-4.3,0-9.7,0-15,0c-0.1-0.2-0.1-0.5-0.2-0.7c1.3-0.7,2.7-1.3,4.5-2.2c-2.3-3-0.3-8.2-6.2-8.8
		c-5-0.5-8.6,0.7-9,6.2c-0.1,1.7,1.7,3.5,2.7,5.4c-3.2,0-7.3,0-10.1,0c1.6-2.6,3.9-5.3,5.2-8.4c3.1-7.5,5.8-15.2,8.8-22.8
		c0.5-1.2,1.7-2.1,2.5-3.2c0.8,1,1.8,1.9,2.3,3c3.1,7.4,5.9,14.9,9.1,22.2C742.3,987.5,744.5,990.5,746.4,993.7z M731.5,979.9
		c-1.4-3.6-2.6-6.6-4.2-10.7c-1.5,4.2-2.6,7.3-3.8,10.7C726.3,979.9,728.5,979.9,731.5,979.9z"/>
	<path d="M1125.5,984.2c-0.2,3.1-0.4,6.2-0.6,9.6c-10.8,0-21.1,0-32.7,0c1.6-0.9,2.3-1.6,3.1-1.7c2.7-0.3,3.4-1.8,3.4-4.4
		c-0.1-6,0.1-12,0.2-17.9c0.1-3.8,0.5-7.7-4.5-9.3c5.4,0,10.7,0,16.1,0c-5.3,1.4-4.6,5.5-4.5,9.4c0.1,7.3,0,14.5,0,21.9
		c8,1.1,15,0.8,18.1-8.8C1124.6,983.3,1125.1,983.8,1125.5,984.2z"/>
	<path d="M526.5,984.2c-0.2,3.1-0.4,6.2-0.5,9.6c-10.7,0-21.1,0-31.5,0c0-0.3,0-0.9,0.1-0.9c4.8-0.7,5.5-3.9,5.2-8.1
		c-0.3-5.1,0.1-10.3,0.1-15.4c0-3.5,1.2-7.9-4.5-8.8c5.4,0,10.7,0,16.1,0c-5.1,1.4-4.6,5.3-4.5,9.3c0.1,7.3,0,14.5,0,22
		c7.9,0.8,15.1,1.2,18-8.9C525.5,983.2,526,983.7,526.5,984.2z"/>
	<path d="M1313.5,960.4c5.2,0,10.4,0,16.8,0c-2.3,1.4-3.7,2.2-5.3,3.2c0,9,0,18.1,0,27.4c1.4,0.6,2.8,1.1,4.1,1.7
		c0,0.3,0,0.5-0.1,0.8c-5.1,0-10.1,0-16.3,0c6.8-2.4,5-7.6,5.1-12c0.1-4.5,0-9,0.2-13.5C1318.2,964.4,1317.8,961.5,1313.5,960.4z"/>
	<path d="M893.6,960.3c5.2,0,10.4,0,15.5,0c-5.6,2.1-4.1,6.8-4.1,10.8c-0.1,4.8-0.4,9.7,0,14.5c0.2,2.7,1.7,5.2,2.6,8
		c-3.7,0-8.8,0-13.8,0c5.2-1.9,4-6.4,4-10.3c0-4.8,0.1-9.6,0.1-14.5c0-3.5,0.9-7.4-5.6-7C892.8,961.2,893.2,960.8,893.6,960.3z"/>
</g>
<path d="M-26-86"/>
</svg>
